<svg width="24" height="24" viewBox="0 0 24 24" fill="none" xmlns="http://www.w3.org/2000/svg">
<g clip-path="url(#clip0_1_746)">
<path d="M1.99707 23.1406C1.99707 23.2412 1.9578 23.338 1.88672 23.4092C1.8156 23.4803 1.71874 23.5205 1.61816 23.5205C1.51756 23.5205 1.42075 23.4803 1.34961 23.4092C1.27847 23.338 1.23828 23.2412 1.23828 23.1406V20.1055H1.99707V23.1406ZM6.5498 22.7617C6.54971 22.9628 6.46935 23.1557 6.32715 23.2979C6.18489 23.44 5.99213 23.5205 5.79102 23.5205C5.58989 23.5205 5.39713 23.44 5.25488 23.2979C5.11268 23.1557 5.03232 22.9628 5.03223 22.7617V20.1055H6.5498V22.7617ZM9.96387 22.7617C9.96377 22.9628 9.88341 23.1557 9.74121 23.2979C9.59895 23.44 9.40619 23.5205 9.20508 23.5205C9.00396 23.5205 8.81119 23.44 8.66895 23.2979C8.52675 23.1557 8.44639 22.9628 8.44629 22.7617V20.1055H9.96387V22.7617ZM14.1367 23.1406C14.1367 23.2412 14.0965 23.338 14.0254 23.4092C13.9543 23.4801 13.8582 23.5204 13.7578 23.5205C13.6572 23.5205 13.5604 23.4803 13.4893 23.4092C13.4181 23.338 13.3779 23.2412 13.3779 23.1406V20.1055H14.1367V23.1406ZM14.1367 19.3467H1.23828V15.5537H14.1367V19.3467ZM14.5166 14.0361C14.6171 14.0362 14.7131 14.0764 14.7842 14.1475C14.8552 14.2185 14.8954 14.3146 14.8955 14.415C14.8955 14.5156 14.8553 14.6125 14.7842 14.6836C14.7131 14.7546 14.617 14.7948 14.5166 14.7949H0.859375C0.758916 14.7949 0.662879 14.7546 0.591797 14.6836C0.520654 14.6125 0.480469 14.5156 0.480469 14.415C0.480582 14.3146 0.520755 14.2185 0.591797 14.1475C0.662885 14.0764 0.758887 14.0362 0.859375 14.0361H14.5166ZM7.49805 4.1582C8.05124 4.15833 8.58148 4.37836 8.97266 4.76953C9.36382 5.16072 9.58388 5.69094 9.58398 6.24414V7.0332C9.58448 7.30535 9.53165 7.57562 9.42773 7.82715C9.32385 8.07854 9.17083 8.30666 8.97852 8.49902C8.78608 8.69146 8.55719 8.84433 8.30566 8.94824C8.05422 9.05208 7.78474 9.10499 7.5127 9.10449H11.4805V4.93164C11.4806 4.73054 11.5609 4.53772 11.7031 4.39551C11.8453 4.2533 12.0381 4.17292 12.2393 4.17285C12.4405 4.17285 12.6341 4.25322 12.7764 4.39551C12.9184 4.5377 12.998 4.73063 12.998 4.93164V9.48438C12.998 9.68344 12.9589 9.88052 12.8828 10.0645C12.8066 10.2486 12.6946 10.4167 12.5537 10.5576C12.4129 10.6984 12.2455 10.8095 12.0615 10.8857C11.8774 10.962 11.6797 11.002 11.4805 11.002H9.96289V13.2773C7.0803 13.2773 7.28516 13.3153 7.28516 13.2773C7.27904 12.7308 7.05638 12.2087 6.66602 11.8262C6.27556 11.4436 5.74876 11.2322 5.20215 11.2373H4.27344C4.17291 11.2373 4.07601 11.2766 4.00488 11.3477C3.93374 11.4188 3.89355 11.5156 3.89355 11.6162C3.89356 11.7168 3.93374 11.8136 4.00488 11.8848C4.07601 11.9558 4.17292 11.9951 4.27344 11.9951H5.20215C5.54761 11.99 5.8817 12.1229 6.12988 12.3633C6.37775 12.6035 6.52027 12.9322 6.52637 13.2773H3.89355C2.75564 13.2773 2.25919 12.2614 2.63086 11.4951C2.98237 10.7747 3.52987 10.1679 4.21094 9.74512C4.89203 9.32237 5.67887 9.09985 6.48047 9.10449H7.48242C7.21037 9.10499 6.9409 9.05209 6.68945 8.94824C6.43793 8.84433 6.20904 8.69146 6.0166 8.49902C5.82429 8.30666 5.67126 8.07854 5.56738 7.82715C5.46347 7.57562 5.41063 7.30535 5.41113 7.0332V6.24414C5.41124 5.69095 5.6313 5.16072 6.02246 4.76953C6.41375 4.37825 6.94469 4.1582 7.49805 4.1582ZM19.4482 0C20.6554 1.79879e-08 21.8133 0.479543 22.667 1.33301C23.5207 2.18672 24.001 3.3454 24.001 4.55273C24.0009 5.7599 23.5206 6.91788 22.667 7.77148C21.8133 8.62496 20.6554 9.10449 19.4482 9.10449H14.8965L16.2275 7.77344C15.5902 7.1368 15.1564 6.3249 14.9805 5.44141C14.8045 4.55788 14.8944 3.64183 15.2393 2.80957C15.5841 1.97734 16.1687 1.26577 16.918 0.765625C17.6671 0.265726 18.5477 -0.000650943 19.4482 0ZM19.4482 6.44922C19.3477 6.4493 19.2517 6.48947 19.1807 6.56055C19.1096 6.63163 19.0694 6.72762 19.0693 6.82812C19.0693 6.92874 19.1095 7.02554 19.1807 7.09668C19.2517 7.16762 19.3478 7.20793 19.4482 7.20801C19.5488 7.20801 19.6457 7.16781 19.7168 7.09668C19.7879 7.02554 19.8281 6.92874 19.8281 6.82812C19.8281 6.72771 19.7877 6.63161 19.7168 6.56055C19.6457 6.4894 19.5489 6.44922 19.4482 6.44922ZM19.4238 1.13867C19.0937 1.143 18.7698 1.23283 18.4854 1.40039C18.201 1.56795 17.9655 1.80721 17.8018 2.09375C17.638 2.38036 17.5518 2.70504 17.5518 3.03516C17.5518 3.13562 17.5921 3.23167 17.6631 3.30273C17.7341 3.37377 17.8302 3.41394 17.9307 3.41406C18.0313 3.41406 18.1281 3.37388 18.1992 3.30273C18.2702 3.23168 18.3105 3.1356 18.3105 3.03516C18.3109 2.83717 18.3634 2.64242 18.4619 2.4707C18.5604 2.29913 18.7015 2.15586 18.8721 2.05566C19.0427 1.95551 19.2368 1.90184 19.4346 1.89941C19.6324 1.89706 19.828 1.94595 20.001 2.04199C20.174 2.13812 20.3193 2.27798 20.4219 2.44727C20.5245 2.61659 20.5808 2.8099 20.5859 3.00781C20.591 3.20573 20.5449 3.40178 20.4512 3.57617C20.3575 3.75048 20.2196 3.89704 20.0518 4.00195C19.7575 4.17609 19.5128 4.42325 19.3408 4.71875C19.1689 5.01419 19.0754 5.34867 19.0693 5.69043C19.0694 5.791 19.1095 5.88787 19.1807 5.95898C19.2517 6.02981 19.3479 6.06926 19.4482 6.06934C19.5488 6.06934 19.6457 6.03 19.7168 5.95898C19.7879 5.88787 19.8281 5.791 19.8281 5.69043C19.8352 5.47718 19.8964 5.26908 20.0059 5.08594C20.1153 4.90285 20.2697 4.75074 20.4541 4.64355C20.7339 4.46863 20.9629 4.22331 21.1191 3.93262C21.2753 3.64187 21.3533 3.31528 21.3447 2.98535C21.3361 2.65538 21.2415 2.33298 21.0703 2.05078C20.8991 1.7686 20.6568 1.53602 20.3682 1.37598C20.0795 1.21596 19.7539 1.13437 19.4238 1.13867Z" fill="#E6E6E6"/>
</g>
<defs>
<clipPath id="clip0_1_746">
<rect width="24" height="24" fill="white"/>
</clipPath>
</defs>
</svg>
