<svg width="24" height="24" viewBox="0 0 24 24" fill="none" xmlns="http://www.w3.org/2000/svg">
<path d="M16.2461 11.007C16.9454 10.9334 19.113 10.926 19.7392 11.1018C22.1852 11.793 23.098 15.9321 22.8281 18.1164C22.4109 21.4992 19.0316 24.4979 16.4629 20.9924C15.7266 19.9903 15.6532 18.0344 14.1806 17.9035C12.8636 17.789 11.3869 17.9894 10.0576 17.9035C8.61367 18.1449 8.63025 19.7122 7.99215 20.7307C5.80378 24.2114 2.282 22.133 1.57028 18.7707C1.0714 16.4023 1.97102 11.3718 4.94039 11.0158V11.0119C5.54159 10.9383 7.87669 10.9259 8.39254 11.0813C9.16147 11.3144 9.56245 12.063 10.1718 12.5129L14.0742 12.5246C14.8267 11.997 15.2278 11.1135 16.2461 11.007ZM18.4345 17.1223C19.3589 16.9709 19.1997 15.4377 18.124 15.6135C17.1996 15.7648 17.3589 17.298 18.4345 17.1223ZM6.00778 13.5598C6.00754 13.2246 5.23945 13.2246 5.23922 13.5598V14.8322H3.96676C3.63169 14.8326 3.63169 15.6004 3.96676 15.6008H5.23922V16.8733C5.23938 17.2085 6.00762 17.2085 6.00778 16.8733V15.6008H7.28024C7.61565 15.6008 7.61565 14.8322 7.28024 14.8322H6.00778V13.5598ZM16.9013 15.5891C17.8253 15.4373 17.6654 13.9035 16.5898 14.0793C15.6655 14.2308 15.8256 15.765 16.9013 15.5891ZM19.9726 15.5891C20.897 15.4377 20.7376 13.9037 19.6621 14.0793C18.7377 14.2307 18.897 15.7648 19.9726 15.5891ZM18.4345 14.051C19.3589 13.8997 19.1996 12.3655 18.124 12.5412C17.1996 12.6926 17.359 14.2266 18.4345 14.051ZM8.77633 1.03439C10.9156 1.15301 13.3211 0.830426 15.4277 1.02267C16.4993 1.12097 17.4155 2.03702 17.5136 3.10861C17.5954 3.98392 17.5954 5.7303 17.5136 6.60568C17.4114 7.70181 16.4748 8.60638 15.3828 8.6965C13.2885 8.86421 10.977 8.5697 8.86227 8.6965C7.80697 8.58604 6.89068 7.718 6.78024 6.65451C6.69029 5.80759 6.69026 3.91807 6.78024 3.0715C6.88669 2.04088 7.76206 1.17823 8.77633 1.04318V1.03439ZM10.8828 6.40549C10.4945 6.52018 10.519 7.09701 10.9238 7.15842C11.3001 7.21568 12.986 7.21568 13.3623 7.15842C13.7871 7.09266 13.787 6.46353 13.3623 6.39767L10.8828 6.40549ZM6.0068 6.39279C3.96577 6.29457 3.97394 3.41543 6.0068 3.32541V6.39279ZM18.2822 3.32541C20.311 3.4154 20.3151 6.29871 18.2822 6.39279V3.32541ZM10.3877 4.85471C11.9052 4.66655 11.5861 2.32315 10.0195 2.56857C8.60482 2.79392 8.8706 5.04244 10.3877 4.85471ZM14.2246 4.85471C15.7421 4.66655 15.423 2.32315 13.8564 2.56857C12.4416 2.79381 12.7074 5.04258 14.2246 4.85471Z" fill="#E6E6E6"/>
</svg>
