<svg width="24" height="24" viewBox="0 0 24 24" fill="none" xmlns="http://www.w3.org/2000/svg">
<path d="M20.8984 15.7803C21.5507 15.7803 22.0799 16.3087 22.0801 16.9609V20.8984C22.0801 21.5508 21.5508 22.0801 20.8984 22.0801H3.10156C2.44916 22.0801 1.91992 21.5508 1.91992 20.8984V16.9609C1.92009 16.3087 2.44926 15.7803 3.10156 15.7803H20.8984ZM4.2207 17.166C4.0075 17.2082 3.8682 17.4147 3.91016 17.6279L4.44727 20.3438C4.45096 20.3624 4.45653 20.3806 4.46289 20.3984C4.52743 20.5802 4.69984 20.7021 4.89258 20.7021H4.89551C5.08937 20.7007 5.2618 20.5761 5.32422 20.3926C5.32532 20.3893 5.32615 20.386 5.32715 20.3828L5.79004 18.8887L6.25 20.3828C6.25161 20.388 6.25306 20.3933 6.25488 20.3984C6.31949 20.58 6.49198 20.7021 6.68457 20.7021H6.6875C6.88138 20.7008 7.05376 20.5761 7.11621 20.3926C7.12177 20.3763 7.12651 20.3596 7.12988 20.3428L7.66895 17.6338C7.71135 17.4205 7.57261 17.2134 7.35938 17.1709C7.14618 17.1285 6.93892 17.2673 6.89648 17.4805L6.61523 18.8936L6.16602 17.4355C6.10181 17.228 5.88152 17.1118 5.67383 17.1758C5.53405 17.2189 5.43532 17.3327 5.40527 17.4658L4.96387 18.8945L4.68262 17.4756C4.64047 17.2623 4.43391 17.1239 4.2207 17.166ZM8.46387 17.1582C8.24654 17.1583 8.0704 17.3344 8.07031 17.5518V20.3086C8.07054 20.5258 8.24663 20.7021 8.46387 20.7021C8.68115 20.7021 8.85719 20.5258 8.85742 20.3086V17.5518C8.85734 17.3344 8.68124 17.1582 8.46387 17.1582ZM11.5469 17.1582C11.3295 17.1604 11.1552 17.3383 11.1572 17.5557L11.1719 19.0752L9.96875 17.333C9.87084 17.1916 9.6925 17.1297 9.52832 17.1807C9.36394 17.2319 9.25212 17.3845 9.25195 17.5566V20.3086C9.25221 20.5258 9.42824 20.7021 9.64551 20.7021C9.86265 20.702 10.0388 20.5257 10.0391 20.3086V18.8203L11.1816 20.4746C11.2954 20.6389 11.486 20.7089 11.667 20.6523C11.8514 20.5948 11.9707 20.4225 11.9707 20.2109L11.9443 17.5479C11.9421 17.3318 11.7664 17.1582 11.5508 17.1582H11.5469ZM14.6602 17.1582C14.4427 17.1603 14.2675 17.3383 14.2695 17.5557L14.2842 19.0752L13.082 17.333C12.9841 17.1914 12.8052 17.1295 12.6406 17.1807C12.4763 17.2319 12.3644 17.3845 12.3643 17.5566V20.3086C12.3645 20.5258 12.5406 20.7021 12.7578 20.7021C12.9751 20.7021 13.1511 20.5258 13.1514 20.3086V18.8203L14.2939 20.4746C14.4076 20.6389 14.5984 20.7087 14.7793 20.6523C14.9637 20.5948 15.083 20.4225 15.083 20.2109L15.0576 17.5479C15.0554 17.3319 14.8795 17.1585 14.6641 17.1582H14.6602ZM15.8701 17.1582C15.6529 17.1584 15.4766 17.3345 15.4766 17.5518V20.3086C15.4768 20.5257 15.653 20.7019 15.8701 20.7021H17.0322C17.2494 20.702 17.4255 20.5257 17.4258 20.3086C17.4258 20.0913 17.2495 19.9142 17.0322 19.9141H16.2646V19.3242H16.9463C17.1637 19.3242 17.3398 19.1471 17.3398 18.9297C17.3397 18.7124 17.1636 18.5361 16.9463 18.5361H16.2646V17.9453H17.0322C17.2495 17.9452 17.4258 17.7691 17.4258 17.5518C17.4257 17.3345 17.2495 17.1584 17.0322 17.1582H15.8701ZM18.2129 17.1582C17.9956 17.1583 17.8194 17.3345 17.8193 17.5518V20.3086C17.8196 20.5257 17.9957 20.702 18.2129 20.7021C18.4302 20.7021 18.6062 20.5258 18.6064 20.3086V19.6582L19.4082 20.5684C19.4859 20.6566 19.5941 20.702 19.7031 20.7021C19.7955 20.7021 19.8891 20.6694 19.9639 20.6035C20.1268 20.4598 20.1426 20.211 19.999 20.0479L19.3477 19.3086C19.7846 19.1511 20.0965 18.7443 20.0967 18.2686C20.0967 17.6565 19.5807 17.1582 18.9463 17.1582H18.2129ZM18.9473 17.9453C19.144 17.9453 19.3104 18.0928 19.3105 18.2676C19.3105 18.4424 19.1441 18.5898 18.9473 18.5898C18.8676 18.5898 18.7386 18.5912 18.6113 18.5918C18.6107 18.4685 18.6097 18.0751 18.6094 17.9453H18.9473ZM18.4961 14.5986H5.50293V13.0234H18.4961V14.5986ZM15.6572 6.87305L17.2158 5.93652C17.5052 6.91409 18.4113 7.62988 19.4814 7.62988C19.5093 7.62987 19.5368 7.62891 19.5645 7.62793L18.6406 11.8428H5.35938L4.43457 7.62793C4.46241 7.62891 4.49048 7.62988 4.51855 7.62988C5.58871 7.62986 6.49478 6.91407 6.78418 5.93652L8.34277 6.87305L10.2803 4.71973C10.7114 5.17762 11.3229 5.46387 12 5.46387C12.6768 5.4638 13.2877 5.17744 13.7188 4.71973L15.6572 6.87305ZM9.6377 9.40137C9.31152 9.40137 9.04689 9.66601 9.04688 9.99219C9.04688 10.3184 9.31151 10.583 9.6377 10.583C9.96367 10.5828 10.2275 10.3182 10.2275 9.99219C10.2275 9.66616 9.96367 9.40161 9.6377 9.40137ZM12 9.40137C11.6738 9.40137 11.4092 9.66601 11.4092 9.99219C11.4092 10.3184 11.6738 10.583 12 10.583C12.3261 10.5829 12.5908 10.3183 12.5908 9.99219C12.5908 9.6661 12.3261 9.4015 12 9.40137ZM14.3623 9.40137C14.0361 9.40137 13.7715 9.66601 13.7715 9.99219C13.7715 10.3184 14.0361 10.583 14.3623 10.583C14.6885 10.583 14.9531 10.3184 14.9531 9.99219C14.9531 9.66603 14.6885 9.40139 14.3623 9.40137ZM4.51855 4.08496C5.17094 4.08496 5.7002 4.61422 5.7002 5.2666C5.70008 5.91889 5.17087 6.44727 4.51855 6.44727C3.86633 6.44716 3.33801 5.91882 3.33789 5.2666C3.33789 4.61428 3.86626 4.08507 4.51855 4.08496ZM19.4814 4.08496C20.1337 4.08507 20.6621 4.61428 20.6621 5.2666C20.662 5.91882 20.1337 6.44716 19.4814 6.44727C18.8291 6.44727 18.2999 5.91889 18.2998 5.2666C18.2998 4.61422 18.8291 4.08496 19.4814 4.08496ZM12.001 1.91992C12.6534 1.91992 13.1826 2.44918 13.1826 3.10156C13.1824 3.75381 12.6533 4.28223 12.001 4.28223C11.3487 4.28222 10.8195 3.7538 10.8193 3.10156C10.8193 2.44918 11.3486 1.91993 12.001 1.91992Z" fill="#E6E6E6"/>
</svg>
