<svg width="24" height="24" viewBox="0 0 24 24" fill="none" xmlns="http://www.w3.org/2000/svg">
<path d="M4.16504 13.5413C8.49985 13.2861 10.9675 14.3846 11.6152 14.7229V22.5608C10.6815 22.1351 8.65518 21.429 5.46875 21.429C4.81496 21.429 4.11203 21.4588 3.36035 21.5266V13.6018C3.6311 13.5769 3.89509 13.5566 4.15234 13.5413H4.16504ZM12.3955 14.7229C13.0487 14.3834 15.5177 13.2906 19.8467 13.5423H19.8574C20.1147 13.5566 20.3791 13.5768 20.6504 13.6028V21.5276C16.2406 21.1289 13.5236 22.0467 12.3955 22.5598V14.7229ZM12.0039 8.29811C12.9237 8.29816 13.8287 8.52887 14.6357 8.96999C15.443 9.4113 16.1264 10.0491 16.623 10.8235C15.1263 11.545 13.2925 12.6014 12.0049 13.9202C10.7172 12.6005 8.88297 11.5442 7.38379 10.8235C7.8804 10.0491 8.56385 9.4113 9.37109 8.96999C10.1783 8.5287 11.0839 8.29811 12.0039 8.29811ZM4.97559 10.6341C6.77809 11.3136 8.492 12.2093 10.0791 13.301C8.57613 12.899 7.02448 12.7037 5.46875 12.721C5.19034 12.721 4.9018 12.7259 4.60547 12.7376L4.97559 10.6341ZM19.4053 12.7376C17.5628 12.6403 15.7157 12.8306 13.9316 13.301C15.5189 12.2098 17.233 11.3141 19.0352 10.6341L19.4053 12.7376ZM11.4424 1.01491C12.0017 0.903651 12.5815 0.96172 13.1084 1.17995C13.6352 1.39817 14.0855 1.76739 14.4023 2.24147C14.7192 2.71569 14.8887 3.27368 14.8887 3.84401C14.8875 4.60827 14.5833 5.34067 14.043 5.88112C13.5024 6.42169 12.7694 6.72579 12.0049 6.72683C11.4348 6.72677 10.8774 6.55817 10.4033 6.24147C9.92919 5.92467 9.55909 5.47432 9.34082 4.94753C9.12263 4.42077 9.06563 3.84073 9.17676 3.28151C9.28799 2.72231 9.56273 2.20818 9.96582 1.80495C10.3691 1.4017 10.8831 1.12619 11.4424 1.01491Z" fill="#E6E6E6"/>
</svg>
