<svg width="24" height="24" viewBox="0 0 24 24" fill="none" xmlns="http://www.w3.org/2000/svg">
<path d="M17.2338 11.2934H6.76669C5.8795 11.2934 5.16029 12.0189 5.16029 12.9138V15.8825C5.16029 16.7774 5.8795 17.5029 6.76669 17.5029H9.28926C9.58792 17.5029 9.87018 17.3655 10.056 17.1299L10.7239 16.2837C11.3426 15.5 12.5115 15.4655 13.1744 16.2118L14.0293 17.1743C14.2154 17.3835 14.4808 17.5031 14.7592 17.5031H17.2336C18.1207 17.5031 18.8399 16.7776 18.8399 15.8827V12.914C18.8399 12.0191 18.1207 11.2936 17.2336 11.2936L17.2338 11.2934ZM21.3768 12.4817C21.3497 12.4817 21.3278 12.5037 21.3278 12.531V16.5466C21.3278 16.5737 21.3497 16.596 21.3768 16.596C22.0302 16.596 22.56 16.0615 22.56 15.4024V13.6752C22.56 13.0161 22.0302 12.4817 21.3768 12.4817ZM20.0804 17.1436H20.8823C21.0439 17.1436 21.1912 17.0837 21.3043 16.9847C21.3513 16.9437 21.3216 16.8594 21.2675 16.8594C21.0964 16.8594 20.9574 16.7192 20.9574 16.5468V12.531C20.9574 12.3585 21.0964 12.2183 21.2675 12.2183C21.3216 12.2183 21.3777 12.108 21.1967 12.0165C21.1014 11.9683 20.9964 11.934 20.8823 11.934H20.0804C19.906 11.934 19.7647 12.0766 19.7647 12.2523V16.8251C19.7647 17.001 19.906 17.1436 20.0804 17.1436ZM2.62323 16.596C2.65032 16.596 2.67218 16.5739 2.67218 16.5466V12.531C2.67218 12.5037 2.65032 12.4817 2.62323 12.4817C1.96984 12.4817 1.44 13.0161 1.44 13.6752V15.4024C1.44 16.0615 1.96984 16.596 2.62323 16.596ZM3.91956 11.934H3.11767C2.95611 11.934 2.8088 11.9939 2.69546 12.0929C2.64866 12.1339 2.67812 12.2183 2.73229 12.2183C2.90312 12.2183 3.04235 12.3585 3.04235 12.5308V16.5466C3.04235 16.7192 2.90312 16.8594 2.73229 16.8594C2.67812 16.8594 2.62204 16.9696 2.80309 17.0612C2.89837 17.1093 3.00339 17.1436 3.11767 17.1436H3.91956C4.09372 17.1436 4.23533 17.001 4.23533 16.8253V12.2525C4.23533 12.0766 4.09396 11.934 3.91956 11.934ZM20.7186 11.0003H19.902C19.8219 11.0003 19.7568 10.9346 19.7568 10.8539V10.6461C19.7568 6.33571 16.4129 2.68778 12.1416 2.56004C7.70353 2.42727 4.05143 6.03038 4.05143 10.4776V10.8539C4.05143 10.9346 3.98633 11.0003 3.90626 11.0003H3.08964C3.00957 11.0003 2.94446 10.9346 2.94446 10.8539V10.6576C2.94446 5.60114 7.04658 1.35525 12.0589 1.44129C16.928 1.52493 20.8638 5.54626 20.8638 10.4776V10.8539C20.8638 10.9346 20.7987 11.0003 20.7186 11.0003ZM16.166 9.39095H7.83374C7.1984 9.39095 6.68353 9.91054 6.68353 10.5514C6.68353 10.6842 6.79021 10.7918 6.92184 10.7918H17.0782C17.2098 10.7918 17.3165 10.6842 17.3165 10.5514C17.3165 9.91054 16.8016 9.39095 16.1663 9.39095H16.166ZM13.2548 13.9009L11.7415 14.9912C11.6234 15.076 11.478 15.0868 11.349 15.0199C11.22 14.9531 11.1444 14.8277 11.1444 14.6813V12.5008C11.1444 12.3546 11.2202 12.229 11.349 12.1622C11.478 12.0953 11.6232 12.1061 11.7415 12.1909L13.2548 13.2809C13.3572 13.3545 13.413 13.4638 13.413 13.5908C13.413 13.7178 13.3572 13.8269 13.2548 13.9007V13.9009Z" fill="#E6E6E6"/>
<path d="M17.3106 21.5237L17.7909 21.6383C16.2583 21.8072 14.3537 21.9071 12.2911 21.9071C8.76437 21.9071 5.70123 21.6175 4.18123 21.1874C3.88352 21.1031 3.649 21.015 3.49046 20.9207C3.38504 20.858 3.31295 20.7992 3.31295 20.7318C3.31295 20.6644 3.38504 20.6055 3.49046 20.5428C3.649 20.4486 3.88352 20.3605 4.18123 20.2762C5.70123 19.846 8.76437 19.5565 12.2911 19.5565C14.8897 19.5565 17.2371 19.7148 18.9054 19.9703C19.9666 20.1327 20.7449 20.3271 21.1092 20.5535C21.2178 20.6209 21.3862 20.6155 21.485 20.5414C21.5838 20.4673 21.5759 20.3523 21.4673 20.2848C21.1582 20.0927 20.5927 19.9096 19.8208 19.7553C18.1207 19.4156 15.3802 19.1932 12.2911 19.1932C8.67499 19.1932 5.536 19.4995 3.97754 19.9406C3.53652 20.0654 3.21421 20.2044 3.02401 20.3465C2.85836 20.4702 2.78091 20.6009 2.78091 20.7318C2.78091 20.8626 2.85836 20.9933 3.02401 21.117C3.21421 21.2591 3.53652 21.3981 3.97754 21.5229C5.536 21.964 8.67499 22.2703 12.2911 22.2703C14.3965 22.2703 16.3397 22.1673 17.9007 21.9941L17.506 22.2264C17.3948 22.2918 17.3823 22.4066 17.4781 22.4825C17.574 22.5585 17.7421 22.567 17.8533 22.5016L18.9958 21.8293C19.0678 21.7869 19.1012 21.7216 19.0835 21.6578C19.0658 21.5941 18.9996 21.5416 18.9098 21.5202L17.4859 21.1808C17.3473 21.1477 17.1955 21.1978 17.1471 21.2924C17.0987 21.387 17.1719 21.4907 17.3106 21.5237Z" fill="#E6E6E6"/>
</svg>
