<svg width="24" height="24" viewBox="0 0 24 24" fill="none" xmlns="http://www.w3.org/2000/svg">
<path d="M2.01777 19.4992C2.01783 20.2843 2.50611 20.758 3.25226 20.8216H20.2128C20.9814 20.7696 21.4638 20.4286 21.5535 19.6029L20.342 12.8767H21.1049C21.3349 12.8767 21.9241 13.4598 21.9353 13.7542L23.5457 21.2256C23.568 22.0223 22.9619 22.5997 22.2101 22.6055H1.30538C0.682672 22.5939 0.121671 22.1262 0.0262499 21.4911C0.441423 18.8987 1.12018 16.3351 1.63074 13.7542C1.64196 13.4656 2.23111 12.8767 2.46117 12.8767H3.22407L2.01777 19.4992Z" fill="white"/>
<path d="M13.3573 19.8223C14.9057 19.1295 16.7796 18.9967 18.3393 19.7126C18.4964 19.7819 18.7096 19.8632 18.8162 20.0075H13.0431C13.0879 19.9209 13.2675 19.8627 13.3573 19.8223Z" fill="white"/>
<path d="M5.24906 19.6898C6.80877 18.9739 8.53688 19.1123 10.0966 19.7648L10.5177 20.0069H4.74399C4.85615 19.8626 5.08637 19.7649 5.24906 19.6898Z" fill="white"/>
<path d="M12.1504 10.4166C13.783 9.28495 15.7806 9.26213 17.5423 10.1109C18.0081 10.3361 19.0459 10.954 19.2478 11.4332L20.7625 19.5508C20.7625 19.8164 20.5493 20.0303 20.2856 19.9841C20.1282 19.955 19.2308 19.2739 18.9559 19.1353C16.65 17.9171 14.3665 18.373 12.1504 19.522V10.4166Z" fill="white"/>
<path d="M10.2663 9.85072C10.3296 9.78249 11.2762 10.2669 11.3939 10.3938L11.4221 19.522H11.4162C11.0011 19.3661 10.6195 19.1236 10.2099 18.9561C8.08921 18.1016 6.18175 18.1827 4.21249 19.3721C3.76925 19.6378 2.93313 20.5381 2.81531 19.5046C3.3988 17.0334 3.61784 14.3542 4.20133 11.9062C4.36966 11.1904 4.67804 10.8899 5.30075 10.5551C5.50834 10.965 5.91253 10.9709 6.26039 11.1383C6.73159 11.3692 6.61955 11.6697 6.82713 12.068C7.07398 12.5587 7.41067 12.6744 7.93242 12.6051C8.71192 12.5068 8.60553 11.5371 9.00364 11.2252C9.20001 11.0693 9.55386 11.0287 9.77828 10.8901C10.1316 10.6707 10.2832 10.2664 10.2663 9.85072Z" fill="white"/>
<path d="M7.33103 8.9102C7.4264 8.71391 7.54422 7.89954 7.86957 8.33235C7.98737 8.48821 8.06001 8.8984 8.20022 9.1236C8.32926 9.32569 8.52035 9.49884 8.72233 9.60855C8.86826 9.68938 9.35075 9.8109 9.40124 9.85132L9.40653 9.86271C9.74877 10.1572 8.92973 10.3364 8.7558 10.4346C8.48661 10.5847 8.23945 10.8325 8.09921 11.1095C8.00385 11.2943 7.91995 11.8315 7.71805 11.8432C7.49363 11.8606 7.41478 11.3119 7.29696 11.0868C7.06697 10.6538 6.86514 10.5441 6.45008 10.3363C6.2986 10.2612 5.97861 10.2551 5.95617 10.0299C5.93392 9.80495 6.2762 9.81044 6.45008 9.72963C6.82027 9.55643 7.15151 9.29694 7.33103 8.9102Z" fill="white"/>
<path d="M11.4045 1.65825C11.6796 1.60632 12.6668 1.61207 12.9585 1.65825C14.0188 1.82575 14.5068 3.25152 13.9123 4.12912C13.0651 5.37621 10.518 4.6259 9.19392 4.83945C8.44773 4.9607 8.43652 6.19612 9.24443 6.29428C10.2711 6.42124 11.4045 6.02304 11.9936 7.29893C12.1675 7.66845 12.2292 8.45966 12.1562 8.85805C12.1089 9.12859 11.7263 9.24189 11.5261 9.06965L11.4826 9.0253C11.1912 8.67301 11.5728 7.91647 11.1296 7.42001C10.4508 6.64639 8.95252 7.65673 8.11095 6.4789C7.48276 5.60127 7.97647 4.20424 9.0424 4.03681C10.1084 3.86941 11.5 4.12357 12.5996 4.02542C13.1774 3.97332 13.5529 3.48236 13.3173 2.90508C12.9581 2.02771 11.5444 2.62798 11.2583 2.31044C11.0789 2.11408 11.1409 1.71021 11.4045 1.65825Z" fill="white"/>
<path d="M13.6538 7.97449C14.1866 7.92277 14.2255 8.72555 13.7431 8.77174C13.2272 8.82335 13.1322 8.02644 13.6538 7.97449Z" fill="white"/>
<path d="M15.236 5.0007C15.3538 4.75809 15.472 3.92126 15.8086 4.17528C15.9096 4.25633 16.1004 4.94334 16.2238 5.15115C16.3866 5.43979 16.6616 5.71139 16.9533 5.86148C17.1443 5.95961 17.705 6.07515 17.8172 6.19057H17.806C18.1196 6.51947 17.1612 6.70429 16.9421 6.81398C16.6055 6.9872 16.3135 7.26443 16.1451 7.61663C16.0609 7.79605 15.8591 8.8517 15.5338 8.49959C15.4384 8.40129 15.2977 7.7723 15.1855 7.56448C15.0396 7.2989 14.703 6.95831 14.4449 6.81398C14.2481 6.71002 13.1439 6.49037 13.6262 6.14981C13.7891 6.03442 14.2208 5.95943 14.462 5.82672C14.7986 5.64196 15.0621 5.34712 15.236 5.0007Z" fill="white"/>
<path d="M5.72595 6.51966C6.21388 6.49103 6.27546 7.29322 5.77058 7.31631C5.23201 7.33936 5.24907 6.54853 5.72595 6.51966Z" fill="white"/>
<path d="M6.6016 1.00547C6.83725 1.04589 6.79263 1.29426 6.87117 1.47902C7.06754 1.92358 7.28626 2.32776 7.73508 2.52983C7.98195 2.64527 8.36919 2.62241 8.45335 2.91107C8.45315 3.14194 7.86408 3.2461 7.68458 3.33847C7.40406 3.48859 7.11212 3.77135 6.97747 4.07157C6.88776 4.26215 6.8317 4.81044 6.60748 4.82806C6.34943 4.85115 6.25917 4.19882 6.1582 3.99665C5.89456 3.47135 5.31144 3.24035 4.80096 3.07292C4.72241 2.99786 4.7168 2.81829 4.80096 2.74323C4.87503 2.67958 5.40155 2.53545 5.59204 2.42013C6.1404 2.0918 6.24756 1.64267 6.44303 1.05582L6.6016 1.00547Z" fill="white"/>
<path d="M17.7778 3.92711C18.1986 3.57517 18.7259 4.2854 18.2659 4.56251C17.8058 4.83959 17.458 4.1927 17.7778 3.92711Z" fill="white"/>
<path d="M15.5455 1.65226C16.269 1.48511 16.2129 2.61055 15.5062 2.37398C15.2088 2.27582 15.2201 1.73309 15.5455 1.65226Z" fill="white"/>
<path d="M9.54806 1.14993C9.94633 0.780787 10.4062 1.39833 10.0866 1.73318C9.71632 2.11425 9.14972 1.51946 9.54806 1.14993Z" fill="white"/>
<path d="M6.44303 1.05582L6.43892 1.05762L6.4448 1.05163C6.44434 1.05299 6.44349 1.05446 6.44303 1.05582Z" fill="white"/>
</svg>
